<?xml version="1.0" encoding="UTF-8"?>
<svg xmlns="http://www.w3.org/2000/svg" width="1024" height="1024" viewBox="0 0 1024 1024" fill="none">
  <rect width="1024" height="1024" rx="136.533" fill="#FF6033"/>
  <path d="M576.341 352.66C576.341 348.222 579.939 344.624 584.377 344.624H653.632C658.07 344.624 661.668 348.222 661.668 352.66V573.16C661.668 599.571 655.392 622.581 642.841 642.187C630.289 661.679 612.786 676.788 590.332 687.514C567.877 698.125 541.795 703.43 512.086 703.43C482.032 703.43 455.777 698.125 433.323 687.514C410.868 676.788 393.423 661.679 380.986 642.187C368.55 622.581 362.332 599.571 362.332 573.16V352.66C362.332 348.222 365.93 344.624 370.368 344.624H439.796C444.234 344.624 447.832 348.222 447.832 352.66V565.721C447.832 577.946 450.48 588.845 455.777 598.418C461.189 607.991 468.732 615.488 478.405 620.908C488.077 626.329 499.305 629.039 512.086 629.039C524.868 629.039 536.038 626.329 545.595 620.908C555.268 615.488 562.811 607.991 568.223 598.418C573.635 588.845 576.341 577.946 576.341 565.721V352.66Z" fill="white"/>
  <path d="M953.062 491.955L842.805 494.962C840.63 494.962 838.867 496.757 838.867 498.971V525.029C838.867 527.243 840.63 529.038 842.805 529.038L953.062 532.045C955.237 532.045 957 530.25 957 528.036V495.964C957 493.75 955.237 491.955 953.062 491.955Z" fill="white"/>
  <path d="M491.477 70.9422L494.48 181.324C494.48 183.501 496.273 185.266 498.485 185.266H524.514C526.726 185.266 528.519 183.501 528.519 181.324L531.522 70.9422C531.522 68.765 529.729 67 527.517 67H495.481C493.27 67 491.477 68.765 491.477 70.9422Z" fill="white"/>
  <path d="M70.9378 532.045L181.195 529.038C183.37 529.038 185.133 527.243 185.133 525.029V498.971C185.133 496.757 183.37 494.962 181.195 494.962L70.9378 491.955C68.763 491.955 67 493.75 67 495.964V528.036C67 530.25 68.763 532.045 70.9378 532.045Z" fill="white"/>
  <path d="M531.522 953.058L528.519 842.676C528.519 840.499 526.726 838.734 524.514 838.734H498.485C496.273 838.734 494.48 840.499 494.48 842.676L491.477 953.058C491.477 955.235 493.27 957 495.481 957H527.517C529.729 957 531.522 955.235 531.522 953.058Z" fill="white"/>
  <path d="M913.184 330.242L841.638 362.08C839.641 362.908 838.709 365.237 839.555 367.283L845.685 382.098C846.531 384.144 848.836 385.131 850.833 384.303L923.911 356.169C925.908 355.341 926.84 353.011 925.994 350.965L918.332 332.446C917.485 330.401 915.181 329.414 913.184 330.242Z" fill="white"/>
  <path d="M813.4 190.456L759.47 247.281C757.942 248.811 757.971 251.32 759.535 252.886L770.861 264.225C772.425 265.791 774.932 265.819 776.46 264.289L833.221 210.299C834.749 208.769 834.72 206.26 833.156 204.694L818.998 190.52C817.435 188.955 814.928 188.926 813.4 190.456Z" fill="white"/>
  <path d="M666.766 99.5324L638.663 172.693C637.836 174.692 638.822 176.999 640.866 177.847L655.664 183.983C657.708 184.831 660.034 183.897 660.862 181.898L692.664 110.272C693.491 108.273 692.505 105.965 690.462 105.118L671.964 97.4469C669.92 96.5996 667.593 97.5333 666.766 99.5324Z" fill="white"/>
  <path d="M329.556 110.272L361.359 181.898C362.186 183.897 364.513 184.831 366.556 183.983L381.355 177.846C383.398 176.999 384.384 174.692 383.557 172.693L355.454 99.5323C354.627 97.5332 352.3 96.5995 350.257 97.4468L331.758 105.118C329.715 105.965 328.729 108.272 329.556 110.272Z" fill="white"/>
  <path d="M190.317 210.299L247.078 264.289C248.606 265.819 251.113 265.79 252.677 264.225L264.003 252.886C265.567 251.32 265.596 248.81 264.067 247.28L210.138 190.456C208.61 188.926 206.103 188.954 204.539 190.52L190.381 204.694C188.817 206.26 188.789 208.769 190.317 210.299Z" fill="white"/>
  <path d="M99.4959 355.779L172.574 383.913C174.571 384.741 176.876 383.754 177.722 381.709L183.852 366.893C184.698 364.848 183.766 362.518 181.769 361.69L110.223 329.852C108.226 329.024 105.921 330.011 105.075 332.056L97.4128 350.576C96.5664 352.621 97.4991 354.951 99.4959 355.779Z" fill="white"/>
  <path d="M110.408 693.5L181.953 661.662C183.95 660.834 184.883 658.504 184.036 656.459L177.906 641.643C177.06 639.598 174.755 638.611 172.758 639.439L99.6804 667.573C97.6835 668.401 96.7509 670.731 97.5972 672.776L105.26 691.296C106.106 693.341 108.411 694.328 110.408 693.5Z" fill="white"/>
  <path d="M211.139 834.084L265.068 777.259C266.597 775.729 266.568 773.219 265.004 771.654L253.678 760.315C252.114 758.749 249.607 758.72 248.079 760.25L191.318 814.24C189.79 815.77 189.818 818.28 191.382 819.845L205.54 834.019C207.104 835.585 209.611 835.614 211.139 834.084Z" fill="white"/>
  <path d="M355.454 925.285L383.557 852.125C384.384 850.126 383.398 847.818 381.355 846.971L366.556 840.834C364.513 839.987 362.186 840.921 361.359 842.92L329.557 914.546C328.73 916.545 329.716 918.852 331.759 919.7L350.257 927.371C352.3 928.218 354.627 927.284 355.454 925.285Z" fill="white"/>
  <path d="M692.663 914.546L660.861 842.92C660.034 840.921 657.707 839.987 655.664 840.834L640.865 846.971C638.822 847.818 637.836 850.126 638.663 852.125L666.766 925.285C667.593 927.284 669.92 928.218 671.963 927.371L690.461 919.7C692.505 918.852 693.491 916.545 692.663 914.546Z" fill="white"/>
  <path d="M833.221 814.24L776.46 760.25C774.931 758.72 772.425 758.749 770.861 760.315L759.534 771.654C757.971 773.219 757.942 775.729 759.47 777.259L813.399 834.084C814.928 835.614 817.434 835.585 818.998 834.019L833.156 819.845C834.72 818.28 834.749 815.77 833.221 814.24Z" fill="white"/>
  <path d="M924.32 667.442L851.241 639.307C849.245 638.479 846.94 639.466 846.094 641.512L839.964 656.327C839.117 658.373 840.05 660.702 842.047 661.53L913.592 693.369C915.589 694.197 917.894 693.21 918.74 691.164L926.403 672.645C927.249 670.599 926.316 668.27 924.32 667.442Z" fill="white"/>
</svg>